STARTFONT 2.1
FONT -Monotype-Bookman Old Style-Regular-I-Normal--14-100-100-100-P-72-iso8859-2
SIZE 10 100 100
FONTBOUNDINGBOX 20 17 -4 -4

STARTPROPERTIES 24
FOUNDRY "Monotype"
FAMILY_NAME "Bookman Old Style"
WEIGHT_NAME "Regular"
SLANT "I"
SETWIDTH_NAME "Normal"
ADD_STYLE_NAME ""
PIXEL_SIZE 14
POINT_SIZE 100
RESOLUTION_X 100
RESOLUTION_Y 100
SPACING "P"
AVERAGE_WIDTH 72
CHARSET_REGISTRY "iso8859"
CHARSET_ENCODING "2"
FACE_NAME "Bookman Old Style Italic ISO Latin2"
_DEC_DEVICE_FONTNAMES "PS=bookmanoldstyle-it-lat2"
COPYRIGHT "Copyright (c) 1994 Monotype Typography Ltd."
CAP_HEIGHT 11
X_HEIGHT 8
WEIGHT 10
QUAD_WIDTH 8
DEFAULT_CHAR 160
FONT_DESCENT 4
FONT_ASCENT 13
ENDPROPERTIES

CHARS 191

STARTCHAR space
ENCODING 32
SWIDTH 300 0
DWIDTH 4 0
BBX 0 0 0 0
BITMAP
ENDCHAR

STARTCHAR exclam
ENCODING 33
SWIDTH 320 0
DWIDTH 4 0
BBX 3 10 1 0
BITMAP
20
20
20
60
40
40
40
00
80
80
ENDCHAR

STARTCHAR quotedbl
ENCODING 34
SWIDTH 360 0
DWIDTH 5 0
BBX 3 4 1 6
BITMAP
A0
A0
A0
A0
ENDCHAR

STARTCHAR numbersign
ENCODING 35
SWIDTH 600 0
DWIDTH 8 0
BBX 9 10 0 0
BITMAP
1200
1200
1200
7F80
1200
2400
FF00
2400
2400
2400
ENDCHAR

STARTCHAR dollar
ENCODING 36
SWIDTH 620 0
DWIDTH 9 0
BBX 8 12 1 -1
BITMAP
04
3D
6B
49
60
38
14
16
92
D2
BC
20
ENDCHAR

STARTCHAR percent
ENCODING 37
SWIDTH 800 0
DWIDTH 11 0
BBX 10 10 1 0
BITMAP
3040
4880
8900
8A00
9580
6A40
0C40
1440
2480
4300
ENDCHAR

STARTCHAR ampersand
ENCODING 38
SWIDTH 820 0
DWIDTH 11 0
BBX 10 10 1 0
BITMAP
1C00
2200
2200
1600
39C0
4480
8700
8240
CE40
7180
ENDCHAR

STARTCHAR quoteright
ENCODING 39
SWIDTH 280 0
DWIDTH 4 0
BBX 3 4 1 6
BITMAP
20
60
20
C0
ENDCHAR

STARTCHAR parenleft
ENCODING 40
SWIDTH 280 0
DWIDTH 4 0
BBX 4 13 0 -3
BITMAP
10
10
20
60
40
40
C0
80
80
80
80
40
40
ENDCHAR

STARTCHAR parenright
ENCODING 41
SWIDTH 280 0
DWIDTH 4 0
BBX 4 13 0 -3
BITMAP
20
20
10
10
10
10
30
20
20
60
40
80
80
ENDCHAR

STARTCHAR asterisk
ENCODING 42
SWIDTH 440 0
DWIDTH 6 0
BBX 5 5 1 5
BITMAP
20
E0
38
60
B0
ENDCHAR

STARTCHAR plus
ENCODING 43
SWIDTH 600 0
DWIDTH 8 0
BBX 7 7 1 1
BITMAP
10
10
10
FE
10
10
10
ENDCHAR

STARTCHAR comma
ENCODING 44
SWIDTH 300 0
DWIDTH 4 0
BBX 3 4 1 -2
BITMAP
20
60
20
C0
ENDCHAR

STARTCHAR minus
ENCODING 45
SWIDTH 600 0
DWIDTH 8 0
BBX 7 1 1 4
BITMAP
FE
ENDCHAR

STARTCHAR period
ENCODING 46
SWIDTH 300 0
DWIDTH 4 0
BBX 1 2 1 0
BITMAP
80
80
ENDCHAR

STARTCHAR slash
ENCODING 47
SWIDTH 600 0
DWIDTH 8 0
BBX 8 12 0 -2
BITMAP
01
02
02
04
04
08
10
10
20
20
40
80
ENDCHAR

STARTCHAR zero
ENCODING 48
SWIDTH 620 0
DWIDTH 9 0
BBX 8 10 1 0
BITMAP
1E
23
41
41
81
81
82
82
C4
78
ENDCHAR

STARTCHAR one
ENCODING 49
SWIDTH 620 0
DWIDTH 9 0
BBX 5 10 2 0
BITMAP
08
38
08
10
10
10
20
20
20
F0
ENDCHAR

STARTCHAR two
ENCODING 50
SWIDTH 620 0
DWIDTH 9 0
BBX 8 10 1 0
BITMAP
1E
23
41
41
03
06
08
32
46
FC
ENDCHAR

STARTCHAR three
ENCODING 51
SWIDTH 620 0
DWIDTH 9 0
BBX 8 10 1 0
BITMAP
1E
21
21
03
0C
06
02
82
C4
78
ENDCHAR

STARTCHAR four
ENCODING 52
SWIDTH 620 0
DWIDTH 9 0
BBX 8 10 1 0
BITMAP
02
06
0A
12
26
44
FF
04
08
08
ENDCHAR

STARTCHAR five
ENCODING 53
SWIDTH 620 0
DWIDTH 9 0
BBX 8 10 1 0
BITMAP
3F
20
20
7C
06
02
02
82
C4
78
ENDCHAR

STARTCHAR six
ENCODING 54
SWIDTH 620 0
DWIDTH 9 0
BBX 8 10 1 0
BITMAP
1F
20
40
7C
C6
82
82
82
C4
78
ENDCHAR

STARTCHAR seven
ENCODING 55
SWIDTH 620 0
DWIDTH 9 0
BBX 8 10 1 0
BITMAP
7F
C2
84
04
08
10
30
20
60
40
ENDCHAR

STARTCHAR eight
ENCODING 56
SWIDTH 620 0
DWIDTH 9 0
BBX 7 10 1 0
BITMAP
1C
22
42
66
38
4C
82
82
C4
78
ENDCHAR

STARTCHAR nine
ENCODING 57
SWIDTH 620 0
DWIDTH 9 0
BBX 8 10 1 0
BITMAP
1E
23
41
41
41
63
3E
02
04
F8
ENDCHAR

STARTCHAR colon
ENCODING 58
SWIDTH 300 0
DWIDTH 4 0
BBX 2 7 1 0
BITMAP
40
40
00
00
00
80
80
ENDCHAR

STARTCHAR semicolon
ENCODING 59
SWIDTH 300 0
DWIDTH 4 0
BBX 4 9 0 -2
BITMAP
10
10
00
00
00
20
60
20
C0
ENDCHAR

STARTCHAR less
ENCODING 60
SWIDTH 600 0
DWIDTH 8 0
BBX 6 6 1 1
BITMAP
0C
30
C0
60
18
04
ENDCHAR

STARTCHAR equal
ENCODING 61
SWIDTH 600 0
DWIDTH 8 0
BBX 7 3 1 3
BITMAP
FE
00
FE
ENDCHAR

STARTCHAR greater
ENCODING 62
SWIDTH 600 0
DWIDTH 8 0
BBX 6 6 1 1
BITMAP
C0
30
0C
18
60
80
ENDCHAR

STARTCHAR question
ENCODING 63
SWIDTH 540 0
DWIDTH 8 0
BBX 6 10 2 0
BITMAP
78
CC
04
04
08
70
80
00
80
80
ENDCHAR

STARTCHAR at
ENCODING 64
SWIDTH 780 0
DWIDTH 11 0
BBX 12 13 0 -3
BITMAP
0FC0
1020
2010
4390
4490
8890
9190
9120
9760
5990
4020
38E0
0700
ENDCHAR

STARTCHAR A
ENCODING 65
SWIDTH 700 0
DWIDTH 10 0
BBX 10 10 -1 0
BITMAP
0300
0300
0500
0900
0900
1F00
1180
2080
4080
E1C0
ENDCHAR

STARTCHAR B
ENCODING 66
SWIDTH 720 0
DWIDTH 10 0
BBX 10 10 0 0
BITMAP
3F80
10C0
1040
2080
3F00
2180
2080
4080
4180
FF00
ENDCHAR

STARTCHAR C
ENCODING 67
SWIDTH 720 0
DWIDTH 10 0
BBX 9 10 1 0
BITMAP
1E80
2180
4080
C000
8000
8000
8000
C080
4100
3E00
ENDCHAR

STARTCHAR D
ENCODING 68
SWIDTH 740 0
DWIDTH 11 0
BBX 10 10 0 0
BITMAP
3F00
1080
10C0
2040
2040
2040
20C0
4080
4300
FC00
ENDCHAR

STARTCHAR E
ENCODING 69
SWIDTH 680 0
DWIDTH 10 0
BBX 10 10 0 0
BITMAP
3F80
10C0
1040
2200
3E00
2400
2000
4080
4180
FF00
ENDCHAR

STARTCHAR F
ENCODING 70
SWIDTH 620 0
DWIDTH 9 0
BBX 9 10 0 0
BITMAP
3F00
1180
1080
2200
3E00
2400
2000
4000
4000
E000
ENDCHAR

STARTCHAR G
ENCODING 71
SWIDTH 760 0
DWIDTH 11 0
BBX 9 10 1 0
BITMAP
1E80
2180
4080
C000
8000
8380
8100
C100
4300
3D00
ENDCHAR

STARTCHAR H
ENCODING 72
SWIDTH 800 0
DWIDTH 11 0
BBX 11 10 0 0
BITMAP
38E0
1040
1040
2080
3F80
2080
2080
4100
4100
E380
ENDCHAR

STARTCHAR I
ENCODING 73
SWIDTH 320 0
DWIDTH 5 0
BBX 5 10 0 0
BITMAP
38
10
10
20
20
20
20
40
40
E0
ENDCHAR

STARTCHAR J
ENCODING 74
SWIDTH 560 0
DWIDTH 8 0
BBX 9 10 -1 0
BITMAP
0380
0100
0100
0100
0200
0200
4200
C400
8400
7800
ENDCHAR

STARTCHAR K
ENCODING 75
SWIDTH 720 0
DWIDTH 10 0
BBX 10 10 0 0
BITMAP
3BC0
1100
1200
2400
2C00
3400
2600
4200
4300
E780
ENDCHAR

STARTCHAR L
ENCODING 76
SWIDTH 580 0
DWIDTH 8 0
BBX 8 10 0 0
BITMAP
38
10
10
20
20
20
20
41
43
FE
ENDCHAR

STARTCHAR M
ENCODING 77
SWIDTH 860 0
DWIDTH 12 0
BBX 12 10 0 0
BITMAP
3870
1860
18A0
28A0
2940
2940
4A40
4A80
4C80
E9C0
ENDCHAR

STARTCHAR N
ENCODING 78
SWIDTH 720 0
DWIDTH 10 0
BBX 11 10 0 0
BITMAP
38E0
1840
1840
1440
2480
2480
2280
4300
4100
E100
ENDCHAR

STARTCHAR O
ENCODING 79
SWIDTH 760 0
DWIDTH 11 0
BBX 9 10 1 0
BITMAP
1E00
2100
4180
C080
8080
8080
8180
C100
4200
3C00
ENDCHAR

STARTCHAR P
ENCODING 80
SWIDTH 600 0
DWIDTH 9 0
BBX 9 10 0 0
BITMAP
3F00
1180
1080
1080
2180
3F00
2000
4000
4000
E000
ENDCHAR

STARTCHAR Q
ENCODING 81
SWIDTH 780 0
DWIDTH 11 0
BBX 9 12 1 -2
BITMAP
1E00
2100
4180
C080
8080
8080
8180
C100
4200
3C00
1000
0E00
ENDCHAR

STARTCHAR R
ENCODING 82
SWIDTH 700 0
DWIDTH 10 0
BBX 10 10 0 0
BITMAP
3F80
10C0
1040
20C0
3F80
2600
2200
4300
4100
E1C0
ENDCHAR

STARTCHAR S
ENCODING 83
SWIDTH 640 0
DWIDTH 9 0
BBX 8 10 1 0
BITMAP
3D
43
41
60
38
0C
06
82
C2
BC
ENDCHAR

STARTCHAR T
ENCODING 84
SWIDTH 600 0
DWIDTH 8 0
BBX 9 10 0 0
BITMAP
7F00
C980
8880
0800
1000
1000
1000
2000
2000
7000
ENDCHAR

STARTCHAR U
ENCODING 85
SWIDTH 720 0
DWIDTH 10 0
BBX 10 10 1 0
BITMAP
71C0
2080
2080
4100
4100
4100
8200
8200
C400
7800
ENDCHAR

STARTCHAR V
ENCODING 86
SWIDTH 680 0
DWIDTH 9 0
BBX 9 10 1 0
BITMAP
E380
4100
4100
4200
6200
2400
2800
2800
3000
1000
ENDCHAR

STARTCHAR W
ENCODING 87
SWIDTH 960 0
DWIDTH 12 0
BBX 13 10 0 0
BITMAP
E738
4210
4210
4620
6620
2A40
2A80
2A80
3300
1100
ENDCHAR

STARTCHAR X
ENCODING 88
SWIDTH 700 0
DWIDTH 9 0
BBX 10 10 0 0
BITMAP
39C0
1080
1100
0A00
0C00
0C00
1400
2200
4200
E700
ENDCHAR

STARTCHAR Y
ENCODING 89
SWIDTH 660 0
DWIDTH 9 0
BBX 9 10 1 0
BITMAP
E380
4100
6200
2400
3800
1800
1000
2000
2000
7000
ENDCHAR

STARTCHAR Z
ENCODING 90
SWIDTH 580 0
DWIDTH 8 0
BBX 8 10 0 0
BITMAP
3F
61
42
04
08
10
20
42
86
FC
ENDCHAR

STARTCHAR bracketleft
ENCODING 91
SWIDTH 260 0
DWIDTH 4 0
BBX 4 13 1 -3
BITMAP
30
20
20
20
20
40
40
40
40
80
80
80
C0
ENDCHAR

STARTCHAR backslash
ENCODING 92
SWIDTH 600 0
DWIDTH 8 0
BBX 8 12 0 -2
BITMAP
80
40
40
20
20
10
08
08
04
04
02
01
ENDCHAR

STARTCHAR bracketright
ENCODING 93
SWIDTH 260 0
DWIDTH 4 0
BBX 4 13 0 -3
BITMAP
30
10
10
10
20
20
20
20
40
40
40
40
C0
ENDCHAR

STARTCHAR asciicircum
ENCODING 94
SWIDTH 600 0
DWIDTH 8 0
BBX 7 6 1 4
BITMAP
10
30
28
44
84
82
ENDCHAR

STARTCHAR underscore
ENCODING 95
SWIDTH 500 0
DWIDTH 7 0
BBX 7 1 0 -2
BITMAP
FE
ENDCHAR

STARTCHAR quoteleft
ENCODING 96
SWIDTH 280 0
DWIDTH 4 0
BBX 3 4 1 6
BITMAP
60
80
C0
80
ENDCHAR

STARTCHAR a
ENCODING 97
SWIDTH 620 0
DWIDTH 9 0
BBX 8 7 1 0
BITMAP
3A
46
C2
84
84
9D
66
ENDCHAR

STARTCHAR b
ENCODING 98
SWIDTH 600 0
DWIDTH 8 0
BBX 7 10 1 0
BITMAP
20
60
20
5C
62
42
42
82
C4
B8
ENDCHAR

STARTCHAR c
ENCODING 99
SWIDTH 480 0
DWIDTH 7 0
BBX 6 7 1 0
BITMAP
38
4C
C0
80
80
C4
78
ENDCHAR

STARTCHAR d
ENCODING 100
SWIDTH 640 0
DWIDTH 9 0
BBX 8 10 1 0
BITMAP
01
03
01
1E
62
42
82
84
8D
76
ENDCHAR

STARTCHAR e
ENCODING 101
SWIDTH 540 0
DWIDTH 8 0
BBX 7 7 1 0
BITMAP
3C
46
82
FC
80
C2
7C
ENDCHAR

STARTCHAR f
ENCODING 102
SWIDTH 340 0
DWIDTH 5 0
BBX 11 13 -3 -3
BITMAP
01C0
0260
0200
0F80
0400
0400
0400
0800
0800
0800
1000
D000
6000
ENDCHAR

STARTCHAR g
ENCODING 103
SWIDTH 560 0
DWIDTH 8 0
BBX 8 10 0 -3
BITMAP
0D
33
21
43
42
4E
32
04
CC
70
ENDCHAR

STARTCHAR h
ENCODING 104
SWIDTH 620 0
DWIDTH 9 0
BBX 8 10 1 0
BITMAP
20
60
20
4E
52
62
42
84
85
86
ENDCHAR

STARTCHAR i
ENCODING 105
SWIDTH 280 0
DWIDTH 4 0
BBX 3 10 1 0
BITMAP
20
20
00
40
C0
40
40
80
A0
C0
ENDCHAR

STARTCHAR j
ENCODING 106
SWIDTH 280 0
DWIDTH 5 0
BBX 7 13 -2 -3
BITMAP
02
02
00
04
0C
04
04
08
08
08
10
D0
60
ENDCHAR

STARTCHAR k
ENCODING 107
SWIDTH 600 0
DWIDTH 8 0
BBX 8 10 0 0
BITMAP
20
60
20
27
48
50
78
48
85
86
ENDCHAR

STARTCHAR l
ENCODING 108
SWIDTH 280 0
DWIDTH 4 0
BBX 3 10 1 0
BITMAP
20
60
20
20
40
40
40
80
A0
C0
ENDCHAR

STARTCHAR m
ENCODING 109
SWIDTH 880 0
DWIDTH 12 0
BBX 11 7 1 0
BITMAP
5DC0
E640
4440
4440
8880
88A0
88C0
ENDCHAR

STARTCHAR n
ENCODING 110
SWIDTH 620 0
DWIDTH 9 0
BBX 8 7 1 0
BITMAP
5E
E2
42
42
84
85
86
ENDCHAR

STARTCHAR o
ENCODING 111
SWIDTH 540 0
DWIDTH 8 0
BBX 7 7 1 0
BITMAP
3C
42
82
82
82
84
78
ENDCHAR

STARTCHAR p
ENCODING 112
SWIDTH 600 0
DWIDTH 8 0
BBX 9 10 -1 -3
BITMAP
1700
3880
1080
1080
2080
3100
2E00
4000
4000
E000
ENDCHAR

STARTCHAR q
ENCODING 113
SWIDTH 560 0
DWIDTH 8 0
BBX 7 10 1 -3
BITMAP
1A
66
42
82
84
8C
74
08
08
1C
ENDCHAR

STARTCHAR r
ENCODING 114
SWIDTH 400 0
DWIDTH 6 0
BBX 5 7 1 0
BITMAP
D8
60
40
C0
80
80
80
ENDCHAR

STARTCHAR s
ENCODING 115
SWIDTH 540 0
DWIDTH 8 0
BBX 6 7 1 0
BITMAP
38
4C
60
38
0C
C4
78
ENDCHAR

STARTCHAR t
ENCODING 116
SWIDTH 340 0
DWIDTH 5 0
BBX 4 9 1 0
BITMAP
40
40
F0
40
40
80
80
90
E0
ENDCHAR

STARTCHAR u
ENCODING 117
SWIDTH 620 0
DWIDTH 9 0
BBX 8 7 1 0
BITMAP
42
C2
42
84
84
8D
F6
ENDCHAR

STARTCHAR v
ENCODING 118
SWIDTH 540 0
DWIDTH 7 0
BBX 6 7 1 0
BITMAP
48
C4
44
44
88
90
E0
ENDCHAR

STARTCHAR w
ENCODING 119
SWIDTH 880 0
DWIDTH 12 0
BBX 11 7 1 0
BITMAP
4240
C220
4620
4420
8C40
9480
E700
ENDCHAR

STARTCHAR x
ENCODING 120
SWIDTH 540 0
DWIDTH 8 0
BBX 9 7 0 0
BITMAP
3180
1200
0C00
0800
1C00
2500
C600
ENDCHAR

STARTCHAR y
ENCODING 121
SWIDTH 600 0
DWIDTH 8 0
BBX 8 10 0 -3
BITMAP
21
61
22
42
46
4C
74
04
C8
70
ENDCHAR

STARTCHAR z
ENCODING 122
SWIDTH 520 0
DWIDTH 7 0
BBX 7 7 0 0
BITMAP
3E
64
08
30
40
8C
F8
ENDCHAR

STARTCHAR braceleft
ENCODING 123
SWIDTH 360 0
DWIDTH 5 0
BBX 5 13 0 -3
BITMAP
18
20
20
40
40
80
80
40
80
80
80
80
40
ENDCHAR

STARTCHAR bar
ENCODING 124
SWIDTH 600 0
DWIDTH 8 0
BBX 1 14 4 -3
BITMAP
80
80
80
80
80
80
80
80
80
80
80
80
80
80
ENDCHAR

STARTCHAR braceright
ENCODING 125
SWIDTH 380 0
DWIDTH 5 0
BBX 5 13 0 -3
BITMAP
10
08
08
08
08
10
08
08
10
10
20
20
C0
ENDCHAR

STARTCHAR asciitilde
ENCODING 126
SWIDTH 600 0
DWIDTH 8 0
BBX 6 2 1 4
BITMAP
64
98
ENDCHAR

STARTCHAR space
ENCODING 160
SWIDTH 300 0
DWIDTH 5 0
BBX 0 0 0 0
BITMAP
ENDCHAR

STARTCHAR Aogonek
ENCODING 161
SWIDTH 700 0
DWIDTH 10 0
BBX 10 12 0 -2
BITMAP
0300
0300
0500
0900
0900
1F00
1180
2080
4080
E1C0
0100
01C0
ENDCHAR

STARTCHAR breve
ENCODING 162
SWIDTH 440 0
DWIDTH 6 0
BBX 4 2 1 8
BITMAP
90
60
ENDCHAR

STARTCHAR Lslash
ENCODING 163
SWIDTH 580 0
DWIDTH 8 0
BBX 8 10 0 0
BITMAP
38
10
14
28
30
60
A0
41
43
FE
ENDCHAR

STARTCHAR currency
ENCODING 164
SWIDTH 600 0
DWIDTH 8 0
BBX 6 6 1 2
BITMAP
B4
48
84
84
48
B4
ENDCHAR

STARTCHAR Lcaron
ENCODING 165
SWIDTH 580 0
DWIDTH 8 0
BBX 8 10 0 0
BITMAP
3B
11
12
20
20
20
20
41
43
FE
ENDCHAR

STARTCHAR Sacute
ENCODING 166
SWIDTH 640 0
DWIDTH 9 0
BBX 8 13 1 0
BITMAP
06
08
00
3D
43
41
60
38
0C
06
82
C2
BC
ENDCHAR

STARTCHAR section
ENCODING 167
SWIDTH 620 0
DWIDTH 9 0
BBX 8 13 1 -3
BITMAP
1E
23
21
10
2C
46
42
62
32
0C
84
C8
70
ENDCHAR

STARTCHAR dieresis
ENCODING 168
SWIDTH 420 0
DWIDTH 6 0
BBX 5 2 1 8
BITMAP
D8
D8
ENDCHAR

STARTCHAR Scaron
ENCODING 169
SWIDTH 640 0
DWIDTH 9 0
BBX 8 13 1 0
BITMAP
12
0C
00
3D
43
41
60
38
0C
06
82
C2
BC
ENDCHAR

STARTCHAR Scommaaccent
ENCODING 170
SWIDTH 640 0
DWIDTH 9 0
BBX 8 14 1 -4
BITMAP
3D
43
41
60
38
0C
06
82
C2
BC
00
30
10
60
ENDCHAR

STARTCHAR Tcaron
ENCODING 171
SWIDTH 600 0
DWIDTH 8 0
BBX 9 13 0 0
BITMAP
1200
0C00
0000
7F00
C980
8880
0800
1000
1000
1000
2000
2000
7000
ENDCHAR

STARTCHAR Zacute
ENCODING 172
SWIDTH 580 0
DWIDTH 8 0
BBX 8 13 0 0
BITMAP
06
08
00
3F
61
42
04
08
10
20
42
86
FC
ENDCHAR

STARTCHAR hyphen
ENCODING 173
SWIDTH 320 0
DWIDTH 4 0
BBX 4 1 1 3
BITMAP
F0
ENDCHAR

STARTCHAR Zcaron
ENCODING 174
SWIDTH 580 0
DWIDTH 8 0
BBX 8 13 0 0
BITMAP
09
06
00
3F
61
42
04
08
10
20
42
86
FC
ENDCHAR

STARTCHAR Zdotaccent
ENCODING 175
SWIDTH 580 0
DWIDTH 8 0
BBX 8 13 0 0
BITMAP
06
06
00
3F
61
42
04
08
10
20
42
86
FC
ENDCHAR

STARTCHAR degree
ENCODING 176
SWIDTH 400 0
DWIDTH 6 0
BBX 4 4 1 6
BITMAP
60
90
90
60
ENDCHAR

STARTCHAR aogonek
ENCODING 177
SWIDTH 620 0
DWIDTH 9 0
BBX 8 9 1 -2
BITMAP
3A
46
C2
84
84
9D
66
04
07
ENDCHAR

STARTCHAR ogonek
ENCODING 178
SWIDTH 260 0
DWIDTH 4 0
BBX 3 2 1 -2
BITMAP
80
E0
ENDCHAR

STARTCHAR lslash
ENCODING 179
SWIDTH 340 0
DWIDTH 4 0
BBX 4 10 1 0
BITMAP
20
60
20
30
40
C0
40
80
A0
C0
ENDCHAR

STARTCHAR acute
ENCODING 180
SWIDTH 320 0
DWIDTH 4 0
BBX 3 2 1 8
BITMAP
60
80
ENDCHAR

STARTCHAR lcaron
ENCODING 181
SWIDTH 374 0
DWIDTH 4 0
BBX 5 10 1 0
BITMAP
28
68
30
20
40
40
40
80
A0
C0
ENDCHAR

STARTCHAR sacute
ENCODING 182
SWIDTH 540 0
DWIDTH 8 0
BBX 6 10 1 0
BITMAP
18
20
00
38
4C
60
38
0C
C4
78
ENDCHAR

STARTCHAR caron
ENCODING 183
SWIDTH 440 0
DWIDTH 6 0
BBX 4 2 1 8
BITMAP
90
60
ENDCHAR

STARTCHAR commaaccent
ENCODING 184
SWIDTH 333 0
DWIDTH 5 0
BBX 3 3 1 -4
BITMAP
60
20
C0
ENDCHAR

STARTCHAR scaron
ENCODING 185
SWIDTH 540 0
DWIDTH 8 0
BBX 6 10 1 0
BITMAP
24
18
00
38
4C
60
38
0C
C4
78
ENDCHAR

STARTCHAR scommaaccent
ENCODING 186
SWIDTH 540 0
DWIDTH 8 0
BBX 6 11 1 -4
BITMAP
38
4C
60
38
0C
C4
78
00
30
10
60
ENDCHAR

STARTCHAR tcaron
ENCODING 187
SWIDTH 358 0
DWIDTH 5 0
BBX 5 10 1 0
BITMAP
18
48
50
F0
40
40
80
80
90
E0
ENDCHAR

STARTCHAR zacute
ENCODING 188
SWIDTH 520 0
DWIDTH 7 0
BBX 7 10 0 0
BITMAP
0C
10
00
3E
64
08
30
40
8C
F8
ENDCHAR

STARTCHAR hungarumlaut
ENCODING 189
SWIDTH 340 0
DWIDTH 5 0
BBX 6 2 0 8
BITMAP
6C
90
ENDCHAR

STARTCHAR zcaron
ENCODING 190
SWIDTH 520 0
DWIDTH 7 0
BBX 7 10 0 0
BITMAP
12
0C
00
3E
64
08
30
40
8C
F8
ENDCHAR

STARTCHAR zdotaccent
ENCODING 191
SWIDTH 520 0
DWIDTH 7 0
BBX 7 10 0 0
BITMAP
0C
0C
00
3E
64
08
30
40
8C
F8
ENDCHAR

STARTCHAR Racute
ENCODING 192
SWIDTH 700 0
DWIDTH 10 0
BBX 10 13 0 0
BITMAP
0300
0400
0000
3F80
10C0
1040
20C0
3F80
2600
2200
4300
4100
E1C0
ENDCHAR

STARTCHAR Aacute
ENCODING 193
SWIDTH 700 0
DWIDTH 10 0
BBX 10 13 0 0
BITMAP
0180
0200
0000
0300
0300
0500
0900
0900
1F00
1180
2080
4080
E1C0
ENDCHAR

STARTCHAR Acircumflex
ENCODING 194
SWIDTH 700 0
DWIDTH 10 0
BBX 10 13 0 0
BITMAP
0300
0480
0000
0300
0300
0500
0900
0900
1F00
1180
2080
4080
E1C0
ENDCHAR

STARTCHAR Abreve
ENCODING 195
SWIDTH 700 0
DWIDTH 10 0
BBX 10 13 0 0
BITMAP
0440
0380
0000
0300
0300
0500
0900
0900
1F00
1180
2080
4080
E1C0
ENDCHAR

STARTCHAR Adieresis
ENCODING 196
SWIDTH 700 0
DWIDTH 10 0
BBX 10 13 0 0
BITMAP
06C0
06C0
0000
0300
0300
0500
0900
0900
1F00
1180
2080
4080
E1C0
ENDCHAR

STARTCHAR Lacute
ENCODING 197
SWIDTH 580 0
DWIDTH 8 0
BBX 8 13 0 0
BITMAP
0C
10
00
38
10
10
20
20
20
20
41
43
FE
ENDCHAR

STARTCHAR Cacute
ENCODING 198
SWIDTH 720 0
DWIDTH 10 0
BBX 9 13 1 0
BITMAP
0600
0800
0000
1E80
2180
4080
C000
8000
8000
8000
C080
4100
3E00
ENDCHAR

STARTCHAR Ccedilla
ENCODING 199
SWIDTH 720 0
DWIDTH 10 0
BBX 9 13 1 -3
BITMAP
1E80
2180
4080
C000
8000
8000
8000
C080
4100
3E00
0800
0400
1800
ENDCHAR

STARTCHAR Ccaron
ENCODING 200
SWIDTH 720 0
DWIDTH 10 0
BBX 9 13 1 0
BITMAP
0900
0600
0000
1E80
2180
4080
C000
8000
8000
8000
C080
4100
3E00
ENDCHAR

STARTCHAR Eacute
ENCODING 201
SWIDTH 680 0
DWIDTH 10 0
BBX 10 13 0 0
BITMAP
0300
0400
0000
3F80
10C0
1040
2200
3E00
2400
2000
4080
4180
FF00
ENDCHAR

STARTCHAR Eogonek
ENCODING 202
SWIDTH 680 0
DWIDTH 10 0
BBX 10 12 0 -2
BITMAP
3F80
10C0
1040
2200
3E00
2400
2000
4080
4180
FF00
0200
0380
ENDCHAR

STARTCHAR Edieresis
ENCODING 203
SWIDTH 680 0
DWIDTH 10 0
BBX 10 13 0 0
BITMAP
0D80
0D80
0000
3F80
10C0
1040
2200
3E00
2400
2000
4080
4180
FF00
ENDCHAR

STARTCHAR Ecaron
ENCODING 204
SWIDTH 680 0
DWIDTH 10 0
BBX 10 13 0 0
BITMAP
0900
0600
0000
3F80
10C0
1040
2200
3E00
2400
2000
4080
4180
FF00
ENDCHAR

STARTCHAR Iacute
ENCODING 205
SWIDTH 320 0
DWIDTH 5 0
BBX 6 13 0 0
BITMAP
0C
10
00
38
10
10
20
20
20
20
40
40
E0
ENDCHAR

STARTCHAR Icircumflex
ENCODING 206
SWIDTH 320 0
DWIDTH 5 0
BBX 6 13 0 0
BITMAP
18
24
00
38
10
10
20
20
20
20
40
40
E0
ENDCHAR

STARTCHAR Dcaron
ENCODING 207
SWIDTH 740 0
DWIDTH 11 0
BBX 10 13 0 0
BITMAP
0900
0600
0000
3F00
1080
10C0
1040
2040
2040
20C0
4080
4300
FC00
ENDCHAR

STARTCHAR Dcroat
ENCODING 208
SWIDTH 740 0
DWIDTH 11 0
BBX 10 10 0 0
BITMAP
3F00
1080
10C0
1040
7C40
2040
20C0
4080
4300
FC00
ENDCHAR

STARTCHAR Nacute
ENCODING 209
SWIDTH 720 0
DWIDTH 10 0
BBX 11 13 0 0
BITMAP
0180
0200
0000
38E0
1840
1840
1440
2480
2480
2280
4300
4100
E100
ENDCHAR

STARTCHAR Ncaron
ENCODING 210
SWIDTH 720 0
DWIDTH 10 0
BBX 11 13 0 0
BITMAP
0480
0300
0000
38E0
1840
1840
1440
2480
2480
2280
4300
4100
E100
ENDCHAR

STARTCHAR Oacute
ENCODING 211
SWIDTH 760 0
DWIDTH 11 0
BBX 9 13 1 0
BITMAP
0600
0800
0000
1E00
2100
4180
C080
8080
8080
8180
C100
4200
3C00
ENDCHAR

STARTCHAR Ocircumflex
ENCODING 212
SWIDTH 760 0
DWIDTH 11 0
BBX 9 13 1 0
BITMAP
0600
0900
0000
1E00
2100
4180
C080
8080
8080
8180
C100
4200
3C00
ENDCHAR

STARTCHAR Ohungarumlaut
ENCODING 213
SWIDTH 760 0
DWIDTH 11 0
BBX 9 13 1 0
BITMAP
0D80
1200
0000
1E00
2100
4180
C080
8080
8080
8180
C100
4200
3C00
ENDCHAR

STARTCHAR Odieresis
ENCODING 214
SWIDTH 760 0
DWIDTH 11 0
BBX 9 13 1 0
BITMAP
1B00
1B00
0000
1E00
2100
4180
C080
8080
8080
8180
C100
4200
3C00
ENDCHAR

STARTCHAR multiply
ENCODING 215
SWIDTH 600 0
DWIDTH 8 0
BBX 6 6 1 2
BITMAP
84
48
30
30
48
84
ENDCHAR

STARTCHAR Rcaron
ENCODING 216
SWIDTH 700 0
DWIDTH 10 0
BBX 10 13 0 0
BITMAP
0480
0300
0000
3F80
10C0
1040
20C0
3F80
2600
2200
4300
4100
E1C0
ENDCHAR

STARTCHAR Uring
ENCODING 217
SWIDTH 720 0
DWIDTH 10 0
BBX 10 13 1 0
BITMAP
0400
0A00
0400
71C0
2080
2080
4100
4100
4100
8200
8200
C400
7800
ENDCHAR

STARTCHAR Uacute
ENCODING 218
SWIDTH 720 0
DWIDTH 10 0
BBX 10 13 1 0
BITMAP
0300
0400
0000
71C0
2080
2080
4100
4100
4100
8200
8200
C400
7800
ENDCHAR

STARTCHAR Uhungarumlaut
ENCODING 219
SWIDTH 720 0
DWIDTH 10 0
BBX 10 13 1 0
BITMAP
06C0
0900
0000
71C0
2080
2080
4100
4100
4100
8200
8200
C400
7800
ENDCHAR

STARTCHAR Udieresis
ENCODING 220
SWIDTH 720 0
DWIDTH 10 0
BBX 10 13 1 0
BITMAP
1980
1980
0000
71C0
2080
2080
4100
4100
4100
8200
8200
C400
7800
ENDCHAR

STARTCHAR Yacute
ENCODING 221
SWIDTH 660 0
DWIDTH 9 0
BBX 9 13 1 0
BITMAP
0600
0800
0000
E380
4100
6200
2400
3800
1800
1000
2000
2000
7000
ENDCHAR

STARTCHAR Tcommaaccent
ENCODING 222
SWIDTH 600 0
DWIDTH 8 0
BBX 9 14 0 -4
BITMAP
7F00
C980
8880
0800
1000
1000
1000
2000
2000
7000
0000
6000
2000
C000
ENDCHAR

STARTCHAR germandbls
ENCODING 223
SWIDTH 620 0
DWIDTH 9 0
BBX 10 13 -1 -2
BITMAP
0380
0440
0840
0980
1A00
0B00
1980
1040
1040
1640
1380
2000
C000
ENDCHAR

STARTCHAR racute
ENCODING 224
SWIDTH 400 0
DWIDTH 6 0
BBX 5 10 1 0
BITMAP
18
20
00
D8
60
40
C0
80
80
80
ENDCHAR

STARTCHAR aacute
ENCODING 225
SWIDTH 620 0
DWIDTH 9 0
BBX 8 10 1 0
BITMAP
0C
10
00
3A
46
C2
84
84
9D
66
ENDCHAR

STARTCHAR acircumflex
ENCODING 226
SWIDTH 620 0
DWIDTH 9 0
BBX 8 10 1 0
BITMAP
18
24
00
3A
46
C2
84
84
9D
66
ENDCHAR

STARTCHAR abreve
ENCODING 227
SWIDTH 620 0
DWIDTH 9 0
BBX 8 10 1 0
BITMAP
22
1C
00
3A
46
C2
84
84
9D
66
ENDCHAR

STARTCHAR adieresis
ENCODING 228
SWIDTH 620 0
DWIDTH 9 0
BBX 8 10 1 0
BITMAP
36
36
00
3A
46
C2
84
84
9D
66
ENDCHAR

STARTCHAR lacute
ENCODING 229
SWIDTH 280 0
DWIDTH 4 0
BBX 5 13 1 0
BITMAP
18
20
00
20
60
20
20
40
40
40
80
A0
C0
ENDCHAR

STARTCHAR cacute
ENCODING 230
SWIDTH 480 0
DWIDTH 7 0
BBX 6 10 1 0
BITMAP
0C
10
00
38
4C
C0
80
80
C4
78
ENDCHAR

STARTCHAR ccedilla
ENCODING 231
SWIDTH 480 0
DWIDTH 7 0
BBX 6 10 1 -3
BITMAP
38
4C
C0
80
80
C4
78
20
10
60
ENDCHAR

STARTCHAR ccaron
ENCODING 232
SWIDTH 480 0
DWIDTH 7 0
BBX 6 10 1 0
BITMAP
24
18
00
38
4C
C0
80
80
C4
78
ENDCHAR

STARTCHAR eacute
ENCODING 233
SWIDTH 540 0
DWIDTH 8 0
BBX 7 10 1 0
BITMAP
0C
10
00
3C
46
82
FC
80
C2
7C
ENDCHAR

STARTCHAR eogonek
ENCODING 234
SWIDTH 540 0
DWIDTH 8 0
BBX 7 9 1 -2
BITMAP
3C
46
82
FC
80
C2
7C
10
1C
ENDCHAR

STARTCHAR edieresis
ENCODING 235
SWIDTH 540 0
DWIDTH 8 0
BBX 7 10 1 0
BITMAP
36
36
00
3C
46
82
FC
80
C2
7C
ENDCHAR

STARTCHAR ecaron
ENCODING 236
SWIDTH 540 0
DWIDTH 8 0
BBX 7 10 1 0
BITMAP
24
18
00
3C
46
82
FC
80
C2
7C
ENDCHAR

STARTCHAR iacute
ENCODING 237
SWIDTH 280 0
DWIDTH 4 0
BBX 4 10 1 0
BITMAP
30
40
00
40
C0
40
40
80
A0
C0
ENDCHAR

STARTCHAR icircumflex
ENCODING 238
SWIDTH 280 0
DWIDTH 4 0
BBX 4 10 1 0
BITMAP
60
90
00
40
C0
40
40
80
A0
C0
ENDCHAR

STARTCHAR dcaron
ENCODING 239
SWIDTH 711 0
DWIDTH 9 0
BBX 11 10 1 0
BITMAP
0160
0320
0140
1F00
6200
4200
8200
8400
8D00
7600
ENDCHAR

STARTCHAR dcroat
ENCODING 240
SWIDTH 640 0
DWIDTH 9 0
BBX 9 10 1 0
BITMAP
0100
0780
0100
1F00
6200
4200
8200
8400
8D00
7600
ENDCHAR

STARTCHAR nacute
ENCODING 241
SWIDTH 620 0
DWIDTH 9 0
BBX 8 10 1 0
BITMAP
06
08
00
5E
E2
42
42
84
85
86
ENDCHAR

STARTCHAR ncaron
ENCODING 242
SWIDTH 620 0
DWIDTH 9 0
BBX 8 10 1 0
BITMAP
12
0C
00
5E
E2
42
42
84
85
86
ENDCHAR

STARTCHAR oacute
ENCODING 243
SWIDTH 540 0
DWIDTH 8 0
BBX 7 10 1 0
BITMAP
0C
10
00
3C
42
82
82
82
84
78
ENDCHAR

STARTCHAR ocircumflex
ENCODING 244
SWIDTH 540 0
DWIDTH 8 0
BBX 7 10 1 0
BITMAP
18
24
00
3C
42
82
82
82
84
78
ENDCHAR

STARTCHAR ohungarumlaut
ENCODING 245
SWIDTH 540 0
DWIDTH 8 0
BBX 7 10 1 0
BITMAP
36
48
00
3C
42
82
82
82
84
78
ENDCHAR

STARTCHAR odieresis
ENCODING 246
SWIDTH 540 0
DWIDTH 8 0
BBX 7 10 1 0
BITMAP
36
36
00
3C
42
82
82
82
84
78
ENDCHAR

STARTCHAR divide
ENCODING 247
SWIDTH 600 0
DWIDTH 8 0
BBX 7 5 2 2
BITMAP
10
00
FE
00
10
ENDCHAR

STARTCHAR rcaron
ENCODING 248
SWIDTH 400 0
DWIDTH 6 0
BBX 5 10 1 0
BITMAP
48
30
00
D8
60
40
C0
80
80
80
ENDCHAR

STARTCHAR uring
ENCODING 249
SWIDTH 620 0
DWIDTH 9 0
BBX 8 10 1 0
BITMAP
08
14
08
42
C2
42
84
84
8D
F6
ENDCHAR

STARTCHAR uacute
ENCODING 250
SWIDTH 620 0
DWIDTH 9 0
BBX 8 10 1 0
BITMAP
06
08
00
42
C2
42
84
84
8D
F6
ENDCHAR

STARTCHAR uhungarumlaut
ENCODING 251
SWIDTH 620 0
DWIDTH 9 0
BBX 8 10 1 0
BITMAP
1B
24
00
42
C2
42
84
84
8D
F6
ENDCHAR

STARTCHAR udieresis
ENCODING 252
SWIDTH 620 0
DWIDTH 9 0
BBX 8 10 1 0
BITMAP
36
36
00
42
C2
42
84
84
8D
F6
ENDCHAR

STARTCHAR yacute
ENCODING 253
SWIDTH 600 0
DWIDTH 8 0
BBX 8 13 0 -3
BITMAP
06
08
00
21
61
22
42
46
4C
74
04
C8
70
ENDCHAR

STARTCHAR tcommaaccent
ENCODING 254
SWIDTH 340 0
DWIDTH 5 0
BBX 4 13 1 -4
BITMAP
40
40
F0
40
40
80
80
90
E0
00
60
20
C0
ENDCHAR

STARTCHAR dotaccent
ENCODING 255
SWIDTH 260 0
DWIDTH 4 0
BBX 2 2 1 8
BITMAP
C0
C0
ENDCHAR
ENDFONT
